# xmcd CD database file
#
# Track frame offsets:
#	150
#	26947
#	45639
#	72349
#	98664
#	125041
#	147111
#	167074
#	188991
#	205934
#	229959
#	253257
#
# Disc length: 3758 seconds
#
# Revision: 21
# Processed by: cddbd v1.5.2PL0 Copyright (c) Steve Scherf et al.
# Submitted via: CDex 1.70beta2
#
DISCID=b50eac0c
DTITLE=CHEMISTRY - ALL THE BEST disc 2
DYEAR=2006
DGENRE=JPop
TTITLE0=So in Vain
TTITLE1=mirage in blue
TTITLE2=いとしい人 (Single Ver.)
TTITLE3=Long Long Way
TTITLE4=白の吐息
TTITLE5=キミがいる
TTITLE6=Wings of Words
TTITLE7=almost in love
TTITLE8=CHEMISTRY×Crystal Kay - Two As One
TTITLE9=約束の場所
TTITLE10=遠影 feat.John Legend
TTITLE11=Top of the World
EXTD=YEAR: 2006
EXTT0=
EXTT1=
EXTT2=
EXTT3=
EXTT4=
EXTT5=
EXTT6=
EXTT7=
EXTT8=
EXTT9=
EXTT10=
EXTT11=
PLAYORDER=
